<svg xmlns="http://www.w3.org/2000/svg" width="128" height="128" viewBox="0 0 128 128">
  <defs>
    <linearGradient id="steel" x1="0" y1="0" x2="1" y2="1">
      <stop stop-color="#fff1bd"/>
      <stop offset="1" stop-color="#d88a2f"/>
    </linearGradient>
  </defs>
  <circle cx="64" cy="64" r="58" fill="#21170d" stroke="#f0b85a" stroke-width="5"/>
  <path d="M83 18c-10-4-22-1-29 8-6 8-7 18-3 27L20 84c-6 6-6 15 0 21l3 3c6 6 15 6 21 0l31-31c9 4 20 2 27-5 8-8 10-20 5-30L91 58l-13-3-3-13z"
        fill="url(#steel)" stroke="#fff0b2" stroke-width="5" stroke-linejoin="round"/>
  <circle cx="33" cy="95" r="7" fill="#382515" stroke="#fff0b2" stroke-width="3"/>
</svg>
