<svg xmlns="http://www.w3.org/2000/svg" width="256" height="256" viewBox="0 0 256 256">
  <defs>
    <linearGradient id="wind" x1="0" y1="0" x2="1" y2="1">
      <stop offset="0" stop-color="#f5fdff"/>
      <stop offset="1" stop-color="#79cfff"/>
    </linearGradient>
  </defs>
  <circle cx="128" cy="128" r="116" fill="#10243a" stroke="#bdebff" stroke-width="10"/>
  <path d="M28 85c38-18 72-17 106 3M22 122c38-13 72-10 103 8M31 160c34-7 62-2 87 13"
        fill="none" stroke="url(#wind)" stroke-width="12" stroke-linecap="round" opacity=".9"/>
  <path d="M112 100l8-34c3-12 21-9 19 4l-3 27 7-39c2-12 21-10 19 4l-5 38 10-32c4-12 22-7 18 6l-8 32 11-20c7-12 24-3 18 10l-19 43c-10 22-27 38-49 45l-16 5-36-33 8-38c3-15 9-22 18-18z"
        fill="#f3fbff" stroke="#10243a" stroke-width="8" stroke-linejoin="round"/>
  <path d="M119 105c13-4 27-3 40 2M111 126c18-4 36-1 53 8"
        fill="none" stroke="#79cfff" stroke-width="7" stroke-linecap="round"/>
</svg>
